<svg width="40" height="40" viewBox="0 0 40 40" fill="none" xmlns="http://www.w3.org/2000/svg">
<path fill-rule="evenodd" clip-rule="evenodd" d="M3.33301 19.9999C3.33301 10.7999 10.8163 3.33325 19.9997 3.33325L20.466 3.33966C29.4506 3.58686 36.6663 10.9559 36.6663 19.9999C36.6663 29.1833 29.1997 36.6666 19.9997 36.6666C10.8163 36.6666 3.33301 29.1833 3.33301 19.9999ZM23.2997 26.6666C23.783 26.1666 23.783 25.3832 23.283 24.8999L18.3663 19.9999L23.283 15.0999C23.783 14.6166 23.783 13.8166 23.2997 13.3333C22.7997 12.8333 22.0163 12.8333 21.533 13.3333L15.7163 19.1166C15.483 19.3499 15.3497 19.6666 15.3497 19.9999C15.3497 20.3333 15.483 20.6499 15.7163 20.8833L21.533 26.6666C21.7663 26.9166 22.083 27.0332 22.3997 27.0332C22.733 27.0332 23.0497 26.9166 23.2997 26.6666Z" fill="white" fill-opacity="0.7"/>
</svg>
