<svg width="40" height="40" viewBox="0 0 40 40" fill="none" xmlns="http://www.w3.org/2000/svg">
<path fill-rule="evenodd" clip-rule="evenodd" d="M36.6673 19.9999C36.6673 29.1999 29.184 36.6666 20.0007 36.6666L19.5344 36.6602C10.5497 36.413 3.33398 29.044 3.33398 19.9999C3.33398 10.8166 10.8007 3.33325 20.0007 3.33325C29.184 3.33325 36.6673 10.8166 36.6673 19.9999ZM16.7007 13.3333C16.2173 13.8333 16.2173 14.6166 16.7173 15.0999L21.634 19.9999L16.7173 24.8999C16.2173 25.3833 16.2173 26.1833 16.7007 26.6666C17.2007 27.1666 17.984 27.1666 18.4673 26.6666L24.284 20.8833C24.5173 20.6499 24.6507 20.3333 24.6507 19.9999C24.6507 19.6666 24.5173 19.3499 24.284 19.1166L18.4673 13.3333C18.234 13.0833 17.9173 12.9666 17.6007 12.9666C17.2673 12.9666 16.9507 13.0833 16.7007 13.3333Z" fill="white" fill-opacity="0.7"/>
</svg>
